<?xml version="1.0" encoding="UTF-8" standalone="no" ?>
<!DOCTYPE svg PUBLIC "-//W3C//DTD SVG 1.1//EN" "http://www.w3.org/Graphics/SVG/1.1/DTD/svg11.dtd">
<svg xmlns="http://www.w3.org/2000/svg" xmlns:xlink="http://www.w3.org/1999/xlink" version="1.1" width="1080" height="500" viewBox="0 0 1080 500" xml:space="preserve">
<desc>Created with Fabric.js 5.2.4</desc>
<defs>
</defs>
<rect x="0" y="0" width="100%" height="100%" fill="transparent"></rect>
<g transform="matrix(Infinity NaN NaN Infinity 0 0)" id="cdbc7cf0-5a1c-471e-842d-351da97daa27"  >
</g>
<g transform="matrix(1 0 0 1 540 250)" id="9de14262-8b45-4d9c-ae96-0463a983f775"  >
<rect style="stroke: none; stroke-width: 1; stroke-dasharray: none; stroke-linecap: butt; stroke-dashoffset: 0; stroke-linejoin: miter; stroke-miterlimit: 4; fill: rgb(255,255,255); fill-rule: nonzero; opacity: 1; visibility: hidden;" vector-effect="non-scaling-stroke"  x="-540" y="-250" rx="0" ry="0" width="1080" height="500" />
</g>
<g transform="matrix(9.66 0 0 9.66 540 250)"  >
<g style="" vector-effect="non-scaling-stroke"   >
		<g transform="matrix(1 0 0 1 0 0)"  >
<path style="stroke: none; stroke-width: 1; stroke-dasharray: none; stroke-linecap: butt; stroke-dashoffset: 0; stroke-linejoin: miter; stroke-miterlimit: 4; fill: rgb(163,163,163); fill-rule: evenodd; opacity: 1;" vector-effect="non-scaling-stroke"  transform=" translate(-97.64, -85.44)" d="M 118.135 59.592 L 91.959 100.973 L 63.271 100.973 L 69.881 90.792 L 87.729 90.792 L 94.207 80.48 L 54.414 80.48 L 47.935 90.792 L 57.454 90.792 L 44.498000000000005 111.283 L 97.908 111.283 L 118.135 79.02600000000001 L 125.539 90.79200000000002 L 119.193 90.79200000000002 L 112.715 100.97300000000001 L 132.018 100.97300000000001 L 138.494 111.28300000000002 L 150.789 111.28300000000002 L 118.13499999999999 59.59200000000001 z" stroke-linecap="round" />
</g>
		<g transform="matrix(1 0 0 1 -12.42 -20.29)"  >
<path style="stroke: none; stroke-width: 1; stroke-dasharray: none; stroke-linecap: butt; stroke-dashoffset: 0; stroke-linejoin: miter; stroke-miterlimit: 4; fill: rgb(0,0,0); fill-rule: evenodd; opacity: 1;" vector-effect="non-scaling-stroke"  transform=" translate(-85.22, -65.14)" d="M 109.543 59.989 L 67.37 59.989 L 60.891 70.3 L 103.064 70.16799999999999 L 109.54299999999999 59.98899999999999 z" stroke-linecap="round" />
</g>
</g>
</g>
</svg>